<svg width="16" height="16" viewBox="0 0 16 16" fill="none" xmlns="http://www.w3.org/2000/svg">
<g clip-path="url(#clip0_26_3697)">
<path fill-rule="evenodd" clip-rule="evenodd" d="M4.66699 1C4.2988 1 4.00033 1.29848 4.00033 1.66667V2.66667H2.00033C1.26395 2.66667 0.666992 3.26362 0.666992 4V12.6667C0.666992 13.403 1.26395 14 2.00033 14H14.0003C14.7367 14 15.3337 13.403 15.3337 12.6667V4C15.3337 3.26362 14.7367 2.66667 14.0003 2.66667H12.0003V1.66667C12.0003 1.29848 11.7018 1 11.3337 1H10.667C10.2988 1 10.0003 1.29848 10.0003 1.66667V2.66667H6.00033V1.66667C6.00033 1.29848 5.70185 1 5.33366 1H4.66699ZM2.76223 6.72727H13.2384V11.9394H2.76223V6.72727Z" fill="#002033" fill-opacity="0.35"/>
</g>
<defs>
<clipPath id="clip0_26_3697">
<rect width="16" height="16" fill="white"/>
</clipPath>
</defs>
</svg>
