<svg width="25" height="25" viewBox="0 0 25 25" fill="none" xmlns="http://www.w3.org/2000/svg">
<path d="M12.8262 3.5C13.0811 3.50028 13.3262 3.59788 13.5115 3.77285C13.6969 3.94782 13.8084 4.18695 13.8233 4.44139C13.8383 4.69584 13.7555 4.94638 13.5919 5.14183C13.4283 5.33729 13.1963 5.4629 12.9432 5.493L12.8262 5.5H7.82617C7.58124 5.50003 7.34483 5.58996 7.1618 5.75272C6.97877 5.91547 6.86183 6.13975 6.83317 6.383L6.82617 6.5V18.5C6.8262 18.7449 6.91613 18.9813 7.07889 19.1644C7.24165 19.3474 7.46592 19.4643 7.70917 19.493L7.82617 19.5H12.3262C12.5811 19.5003 12.8262 19.5979 13.0115 19.7728C13.1969 19.9478 13.3084 20.187 13.3233 20.4414C13.3383 20.6958 13.2555 20.9464 13.0919 21.1418C12.9283 21.3373 12.6963 21.4629 12.4432 21.493L12.3262 21.5H7.82617C7.06096 21.5 6.32466 21.2077 5.76791 20.6827C5.21116 20.1578 4.87606 19.4399 4.83117 18.676L4.82617 18.5V6.5C4.82613 5.73479 5.1185 4.99849 5.64346 4.44174C6.16841 3.88499 6.88628 3.54989 7.65017 3.505L7.82617 3.5H12.8262ZM18.5332 8.964L21.3612 11.793C21.5486 11.9805 21.654 12.2348 21.654 12.5C21.654 12.7652 21.5486 13.0195 21.3612 13.207L18.5332 16.036C18.3455 16.2235 18.0911 16.3288 17.8258 16.3287C17.5605 16.3286 17.3062 16.2231 17.1187 16.0355C16.9312 15.8479 16.8259 15.5934 16.826 15.3281C16.8261 15.0629 16.9315 14.8085 17.1192 14.621L18.2402 13.5H12.8262C12.561 13.5 12.3066 13.3946 12.1191 13.2071C11.9315 13.0196 11.8262 12.7652 11.8262 12.5C11.8262 12.2348 11.9315 11.9804 12.1191 11.7929C12.3066 11.6054 12.561 11.5 12.8262 11.5H18.2402L17.1192 10.379C16.9315 10.1915 16.8261 9.93712 16.826 9.67185C16.8259 9.40658 16.9312 9.15214 17.1187 8.9645C17.3062 8.77686 17.5605 8.67139 17.8258 8.6713C18.0911 8.6712 18.3455 8.77649 18.5332 8.964Z" fill="white"/>
</svg>
