<svg width="2163" height="626" viewBox="0 0 2163 626" fill="none" xmlns="http://www.w3.org/2000/svg">
<path fill-rule="evenodd" clip-rule="evenodd" d="M269.127 116.135C247.7 116.961 226.154 117.08 204.488 116.49C203.595 116.194 203.122 115.602 203.067 114.714C213.492 104.081 224.265 93.663 235.386 83.46C239.598 87.2843 243.741 91.1911 247.817 95.1802C248.735 95.5283 249.683 95.6469 250.658 95.5354C250.547 96.5106 250.665 97.4582 251.013 98.3767C257.193 104.202 263.231 110.121 269.127 116.135Z" fill="#6FBDE0"/>
<path fill-rule="evenodd" clip-rule="evenodd" d="M203.063 114.713C203.118 115.601 203.592 116.193 204.484 116.489C226.151 117.079 247.697 116.961 269.123 116.134C279.304 126.078 289.486 136.023 299.667 145.967C301.028 148.78 301.501 151.622 301.087 154.491C299.036 154.69 297.971 153.743 297.891 151.65C297.543 152.568 297.424 153.516 297.536 154.491C296.825 154.491 296.115 154.491 295.405 154.491C295.405 153.307 295.405 152.124 295.405 150.94C283.084 150.703 270.772 150.94 258.468 151.65C255.714 152.634 255.714 153.462 258.468 154.136C258.232 154.373 257.994 154.61 257.758 154.846C256.141 154.439 254.484 154.557 252.786 155.202C246.702 150.304 241.019 144.859 235.738 138.864C222.243 152.122 208.51 165.145 194.54 177.932C193.12 177.471 191.7 176.88 190.278 176.156C174.651 175.919 159.024 175.682 143.397 175.446C142.92 174.745 142.92 173.916 143.397 172.96C163.031 153.326 182.92 133.91 203.063 114.713Z" fill="#76BFE0"/>
<path fill-rule="evenodd" clip-rule="evenodd" d="M252.784 155.204C262.121 164.36 271.474 173.594 280.841 182.906C281.171 183.328 281.29 183.802 281.197 184.327C278.72 183.295 276.116 182.821 273.383 182.906C272.119 181.596 270.462 181.123 268.411 181.485C266.191 180.79 263.824 180.553 261.308 180.775C258.253 179.555 254.938 178.844 251.363 178.644C237.556 178.247 223.823 178.957 210.165 180.775C206.045 181.324 202.257 182.507 198.8 184.327C195.075 185.293 191.287 186.003 187.435 186.458C189.802 183.616 192.17 180.775 194.538 177.934C208.508 165.147 222.241 152.124 235.736 138.866C241.017 144.861 246.7 150.306 252.784 155.204Z" fill="#FBFCFE"/>
<path fill-rule="evenodd" clip-rule="evenodd" d="M299.668 145.969C302.257 147.611 304.388 149.742 306.061 152.362C307.203 152.943 308.387 153.416 309.612 153.782C319.117 163.287 328.588 172.758 338.025 182.195C337.964 182.902 338.201 183.494 338.735 183.971C338.076 184.246 337.602 184.72 337.315 185.391C338.447 187.62 340.104 188.212 342.287 187.167C343.061 187.8 343.061 188.51 342.287 189.298C342.997 189.772 343.707 190.245 344.418 190.719C344.299 190.955 344.181 191.193 344.063 191.429C342.332 191.396 340.556 191.16 338.735 190.719C339.608 190.164 340.555 189.809 341.576 189.653C338.972 187.713 337.432 188.304 336.959 191.429C336.525 189.631 335.459 189.039 333.763 189.653C334.337 189.872 334.811 190.227 335.184 190.719C331.179 191.308 327.154 191.664 323.108 191.784C324.461 192.371 324.699 193.2 323.818 194.27C322.398 193.324 321.214 192.139 320.267 190.719C317.394 192.711 317.632 193.777 320.977 193.915C319.995 194.818 319.285 195.884 318.846 197.112C318.61 197.112 318.372 197.112 318.136 197.112C316.164 196.464 314.27 195.754 312.453 194.981C311.022 193.969 309.365 193.496 307.481 193.56C305.178 192.329 302.692 191.146 300.023 190.009C297.043 189.287 294.084 188.577 291.144 187.878C288.796 185.848 285.954 184.901 282.62 185.036C282.377 184.441 281.904 184.204 281.199 184.326C281.292 183.801 281.174 183.327 280.844 182.905C271.477 173.593 262.124 164.359 252.787 155.203C254.485 154.558 256.142 154.44 257.759 154.848C257.995 154.611 258.233 154.374 258.469 154.137C255.715 153.463 255.715 152.635 258.469 151.651C270.773 150.941 283.085 150.704 295.406 150.941C295.406 152.125 295.406 153.308 295.406 154.493C296.116 154.493 296.826 154.493 297.537 154.493C297.425 153.517 297.544 152.57 297.892 151.651C297.971 153.745 299.037 154.691 301.088 154.493C301.502 151.623 301.029 148.782 299.668 145.969Z" fill="#7BC0E1"/>
<path fill-rule="evenodd" clip-rule="evenodd" d="M251.367 178.643C254.422 179.864 257.737 180.574 261.312 180.774C263.602 181.298 265.971 181.771 268.415 182.195C270.155 182.052 271.812 182.288 273.387 182.905C276.12 182.821 278.724 183.294 281.201 184.326C281.905 184.204 282.378 184.441 282.621 185.036C285.406 185.965 288.247 186.912 291.145 187.878C294.085 188.576 297.044 189.287 300.024 190.009C302.693 191.146 305.179 192.329 307.482 193.56C308.914 194.572 310.571 195.045 312.455 194.981C314.271 195.754 316.165 196.464 318.137 197.112C319.222 198.936 320.88 199.883 323.109 199.953C323.613 200.595 324.323 200.832 325.24 200.663C325.725 201.854 326.673 202.328 328.082 202.084C329.3 203.129 330.721 203.839 332.344 204.215C332.829 205.405 333.776 205.879 335.185 205.636C337.63 207.321 340.234 208.742 342.998 209.897C343.483 211.088 344.431 211.562 345.84 211.318C354.025 216.739 362.548 221.829 371.411 226.59C377.567 231.326 383.723 236.061 389.879 240.796C392.275 241.634 394.169 243.172 395.562 245.413C397.826 245.788 399.483 246.971 400.534 248.965C401.366 249.565 402.313 250.038 403.375 250.386C407.431 253.726 411.457 257.158 415.451 260.685C416.161 260.922 416.871 261.159 417.582 261.396C420.647 265.063 424.198 268.023 428.237 270.275C429.218 271.73 430.402 272.913 431.788 273.826C432.756 276.027 434.414 277.211 436.76 277.378C447.415 288.506 458.306 299.398 469.435 310.052C469.909 310.999 470.382 311.947 470.856 312.894C467.541 315.735 464.463 318.813 461.622 322.128C459.254 322.917 457.36 324.338 455.939 326.39C454.518 327.337 453.334 328.521 452.387 329.941C449.749 331.633 447.618 333.764 445.995 336.334C444.574 337.281 443.39 338.465 442.443 339.886C441.918 339.793 441.444 339.911 441.022 340.241C440.136 341.235 439.425 342.301 438.891 343.437C437.807 343.385 437.096 343.859 436.76 344.858C436.014 345.371 435.54 346.081 435.34 346.989C434.255 346.937 433.545 347.411 433.209 348.41C431.788 349.356 430.604 350.541 429.657 351.961C428.237 352.908 427.052 354.092 426.106 355.513C426.106 355.749 426.106 355.987 426.106 356.223C425.13 356.112 424.183 356.23 423.264 356.578C420.022 359.7 416.944 362.897 414.03 366.168C412.622 365.924 411.674 366.398 411.189 367.588C404.706 372.766 398.313 378.093 392.01 383.57C389.614 385.036 387.246 386.456 384.907 387.832C384.021 388.827 383.31 389.892 382.776 391.029C381.76 390.973 380.813 391.209 379.935 391.739C374.212 395.82 368.529 399.845 362.887 403.814C361.825 404.162 360.878 404.635 360.046 405.235C360.046 405.709 359.809 405.945 359.336 405.945C357.817 407.159 356.16 408.107 354.363 408.787C353.33 409.947 352.146 410.895 350.812 411.628C349.403 411.384 348.456 411.858 347.971 413.049C347.497 413.049 347.26 413.285 347.26 413.759C345.852 413.515 344.904 413.989 344.419 415.18C341.328 415.874 338.724 417.294 336.605 419.441C331.52 422.178 326.311 424.546 320.978 426.545C319.57 426.301 318.622 426.775 318.137 427.965C315.525 429.028 312.92 429.975 310.324 430.807C307.891 431.226 305.76 432.174 303.931 433.648C301.134 433.819 298.767 434.766 296.828 436.489C291.946 437.251 287.211 438.435 282.621 440.041C281.911 440.041 281.201 440.041 280.49 440.041C278.055 440.232 275.924 440.942 274.097 442.172C262.698 443.899 251.215 444.609 239.647 444.303C227.459 444.833 215.502 443.886 203.776 441.461C200.368 440.436 196.817 439.725 193.121 439.33C191.548 438.785 189.89 438.311 188.149 437.91C181.043 435.541 173.94 433.173 166.839 430.807C165.178 429.713 163.284 429.24 161.157 429.386C158.021 427.066 154.469 425.409 150.502 424.414C150.295 423.598 149.704 423.124 148.726 422.993C147.208 422.583 145.669 422.347 144.109 422.283C144.109 422.046 144.109 421.809 144.109 421.572C141.869 420.403 139.5 419.456 137.006 418.731C137.006 418.495 137.006 418.257 137.006 418.021C135.458 417.185 133.8 416.474 132.034 415.89C131.323 415.416 130.613 414.943 129.903 414.469C128.246 413.167 126.352 412.22 124.22 411.628C123.735 410.437 122.787 409.964 121.379 410.207C121.379 409.734 121.142 409.497 120.669 409.497C120.183 408.307 119.236 407.833 117.827 408.076C116.331 406.924 114.674 405.977 112.855 405.235C111.347 403.603 109.453 402.657 107.172 402.394C105.939 400.938 104.518 399.636 102.911 398.487C99.7859 396.333 96.4708 394.439 92.9661 392.805C90.5347 390.301 87.6934 388.407 84.4423 387.122C79.6327 382.616 74.4239 378.71 68.8152 375.402C65.4959 372.791 62.4174 369.95 59.5811 366.878C58.7493 366.278 57.8018 365.805 56.7398 365.457C54.1507 363.815 52.0198 361.684 50.347 359.064C49.5024 358.404 48.5555 358.168 47.5057 358.354C46.085 356.933 44.6644 355.513 43.2438 354.092C38.2502 348.861 33.0407 343.888 27.6168 339.175C24.5389 335.15 20.9873 331.598 16.962 328.521C16.0151 327.1 14.831 325.916 13.4104 324.969C12.9366 324.022 12.2263 323.312 11.2794 322.838C10.3326 321.417 9.14847 320.233 7.72783 319.287C6.68792 317.774 5.26729 316.827 3.46592 316.445C3.22938 315.971 2.99213 315.498 2.7556 315.025C2.46863 314.132 1.99485 313.303 1.33496 312.538C1.50757 311.898 1.74481 311.306 2.04528 310.763C3.54405 309.733 4.49091 308.312 4.88655 306.501C6.7071 306.337 7.8912 305.389 8.43815 303.66C8.43815 303.423 8.43815 303.186 8.43815 302.949C10.2587 302.785 11.4428 301.838 11.9897 300.108C17.2532 294.489 22.6985 288.924 28.3271 283.415C29.5694 282.858 30.7535 282.266 31.8787 281.64C33.2993 280.693 34.4834 279.509 35.4303 278.088C36.8509 277.141 38.035 275.957 38.9819 274.536C39.9806 274.2 40.4543 273.49 40.4025 272.405C41.1497 272.511 41.8601 272.393 42.5334 272.05C63.0332 254.478 84.5793 238.496 107.172 224.104C108.581 224.347 109.529 223.874 110.014 222.683C117.018 219.045 123.884 215.02 130.613 210.608C136.266 207.859 141.949 205.254 147.661 202.794C149.049 202.582 149.997 201.872 150.502 200.663C157.114 198.509 163.507 195.786 169.68 192.495C175.747 190.789 181.666 188.777 187.438 186.457C191.291 186.002 195.079 185.292 198.804 184.326C202.862 183.556 206.65 182.373 210.169 180.774C223.827 178.957 237.56 178.246 251.367 178.643Z" fill="#023BAC"/>
<path fill-rule="evenodd" clip-rule="evenodd" d="M251.364 178.643C254.939 178.843 258.254 179.553 261.309 180.774C257.734 180.573 254.419 179.863 251.364 178.643Z" fill="#6A8BCE"/>
<path fill-rule="evenodd" clip-rule="evenodd" d="M261.31 180.774C263.826 180.551 266.193 180.788 268.413 181.484C268.413 181.72 268.413 181.958 268.413 182.194C265.969 181.77 263.601 181.297 261.31 180.774Z" fill="#3964BD"/>
<path fill-rule="evenodd" clip-rule="evenodd" d="M268.412 182.196C268.412 181.96 268.412 181.723 268.412 181.486C270.464 181.124 272.121 181.597 273.384 182.907C271.81 182.289 270.152 182.053 268.412 182.196Z" fill="#93ABDB"/>
<path fill-rule="evenodd" clip-rule="evenodd" d="M210.166 180.773C206.647 182.372 202.859 183.555 198.801 184.325C202.258 182.506 206.046 181.323 210.166 180.773Z" fill="#6E8CCE"/>
<path fill-rule="evenodd" clip-rule="evenodd" d="M282.622 185.036C285.956 184.901 288.798 185.848 291.146 187.877C288.248 186.911 285.407 185.965 282.622 185.036Z" fill="#316BBF"/>
<path fill-rule="evenodd" clip-rule="evenodd" d="M338.024 182.196C367.772 211.01 397.606 239.778 427.524 268.5C428.058 268.977 428.295 269.568 428.234 270.276C424.196 268.024 420.644 265.064 417.579 261.397C416.869 261.16 416.159 260.923 415.448 260.687C411.454 257.16 407.429 253.727 403.373 250.387C402.888 249.196 401.94 248.723 400.532 248.966C399.48 246.972 397.823 245.789 395.559 245.415C394.166 243.174 392.272 241.635 389.877 240.798C383.72 236.062 377.565 231.327 371.409 226.591C362.546 221.831 354.022 216.74 345.837 211.319C345.005 210.719 344.058 210.246 342.996 209.899C340.232 208.743 337.628 207.322 335.182 205.637C334.35 205.037 333.403 204.564 332.341 204.216C330.719 203.84 329.298 203.13 328.079 202.085C327.247 201.485 326.3 201.012 325.238 200.665C324.321 200.833 323.61 200.596 323.107 199.954C321.686 199.007 320.266 198.06 318.845 197.113C319.283 195.885 319.994 194.819 320.976 193.917C317.63 193.778 317.393 192.713 320.266 190.72C321.212 192.141 322.397 193.325 323.817 194.272C324.697 193.201 324.46 192.372 323.107 191.786C327.153 191.665 331.177 191.31 335.182 190.72C334.809 190.229 334.336 189.873 333.762 189.655C335.458 189.04 336.523 189.632 336.958 191.43C337.431 188.306 338.97 187.714 341.575 189.655C340.554 189.81 339.607 190.165 338.734 190.72C340.555 191.161 342.331 191.398 344.061 191.43C344.18 191.194 344.298 190.957 344.416 190.72C343.706 190.246 342.996 189.773 342.285 189.299C343.06 188.512 343.06 187.801 342.285 187.169C340.103 188.213 338.445 187.622 337.313 185.393C337.601 184.721 338.075 184.248 338.734 183.972C338.2 183.495 337.962 182.904 338.024 182.196Z" fill="#82C1E0"/>
<path fill-rule="evenodd" clip-rule="evenodd" d="M307.483 193.559C309.367 193.495 311.024 193.968 312.455 194.98C310.571 195.043 308.914 194.57 307.483 193.559Z" fill="#3169BE"/>
<path fill-rule="evenodd" clip-rule="evenodd" d="M143.395 172.96C142.919 173.917 142.919 174.746 143.395 175.447C159.022 175.683 174.649 175.92 190.276 176.157C191.698 176.881 193.119 177.472 194.538 177.933C192.171 180.774 189.802 183.615 187.435 186.457C181.663 188.776 175.743 190.789 169.677 192.494C163.504 195.786 157.111 198.508 150.498 200.663C149.11 200.875 148.162 201.586 147.657 202.794C141.945 205.254 136.263 207.858 130.609 210.607C123.881 215.019 117.015 219.045 110.01 222.683C108.948 223.03 108.001 223.503 107.169 224.103C84.5758 238.496 63.0297 254.478 42.5299 272.05C41.8565 272.393 41.1462 272.511 40.3989 272.405C74.0553 238.511 108.387 205.363 143.395 172.96Z" fill="#81C1E0"/>
<path fill-rule="evenodd" clip-rule="evenodd" d="M318.135 197.111C318.371 197.111 318.609 197.111 318.845 197.111C320.266 198.058 321.686 199.006 323.107 199.953C320.877 199.882 319.219 198.935 318.135 197.111Z" fill="#3168BD"/>
<path fill-rule="evenodd" clip-rule="evenodd" d="M150.499 200.663C149.994 201.871 149.047 202.581 147.658 202.794C148.163 201.585 149.111 200.875 150.499 200.663Z" fill="#3A75C2"/>
<path fill-rule="evenodd" clip-rule="evenodd" d="M325.242 200.663C326.304 201.01 327.251 201.483 328.083 202.083C326.674 202.327 325.727 201.853 325.242 200.663Z" fill="#3B77C2"/>
<path fill-rule="evenodd" clip-rule="evenodd" d="M332.342 204.216C333.404 204.564 334.351 205.037 335.183 205.637C333.775 205.881 332.827 205.407 332.342 204.216Z" fill="#336FBF"/>
<path fill-rule="evenodd" clip-rule="evenodd" d="M342.998 209.898C344.06 210.246 345.008 210.719 345.839 211.319C344.431 211.563 343.483 211.089 342.998 209.898Z" fill="#3D78C3"/>
<path fill-rule="evenodd" clip-rule="evenodd" d="M256.337 219.842C258.232 220.316 260.125 220.789 262.02 221.263C265.333 221.974 268.647 222.922 271.964 224.104C273.704 223.96 275.362 224.197 276.936 224.814C279.487 225.13 281.855 225.841 284.04 226.945C285.742 228.027 287.635 228.737 289.722 229.076C290.906 229.55 292.09 230.023 293.274 230.497C294.106 231.097 295.053 231.57 296.115 231.917C296.862 231.811 297.573 231.929 298.246 232.272C299.884 233.455 301.541 234.639 303.218 235.824C313.543 245.74 322.541 256.75 330.21 268.854C329.967 270.262 330.44 271.21 331.631 271.695C331.631 272.642 331.631 273.59 331.631 274.536C332.608 276.896 333.792 279.027 335.183 280.929C335.656 283.06 336.129 285.191 336.603 287.322C337.005 289.064 337.478 290.721 338.024 292.294C338.26 292.294 338.498 292.294 338.734 292.294C338.512 294.81 338.749 297.178 339.444 299.398C339.064 304.141 339.538 308.758 340.865 313.249C339.524 318.456 339.05 323.784 339.444 329.231C339.444 329.468 339.444 329.705 339.444 329.941C338.908 331.755 338.434 333.649 338.024 335.624C337.55 337.044 337.077 338.465 336.603 339.886C336.058 341.459 335.584 343.116 335.183 344.858C335.183 345.805 335.183 346.752 335.183 347.699C333.992 348.184 333.518 349.132 333.762 350.541C333.135 352.578 332.188 354.472 330.921 356.223C329.769 357.719 328.822 359.376 328.079 361.195C328.06 362.402 327.586 363.35 326.659 364.037C325.468 364.522 324.994 365.469 325.238 366.878C324.764 366.878 324.528 367.114 324.528 367.588C323.32 368.093 322.609 369.041 322.397 370.429C320.767 372.539 319.109 374.67 317.425 376.822C316.032 377.504 314.848 378.451 313.873 379.664C313.873 379.9 313.873 380.137 313.873 380.374C312.48 381.056 311.297 382.003 310.321 383.215C309.137 384.399 307.954 385.583 306.77 386.767C305.823 387.241 305.113 387.951 304.639 388.898C303.577 389.245 302.629 389.718 301.798 390.318C300.949 390.867 300.239 391.577 299.667 392.449C298.384 392.822 297.2 393.295 296.115 393.87C295.053 394.217 294.106 394.69 293.274 395.291C293.037 348.76 292.326 302.353 291.143 256.068C291.289 253.941 290.816 252.046 289.722 250.386C287.502 248.996 285.609 247.22 284.04 245.058C282.879 244.707 281.695 244.589 280.488 244.703C279.741 243.456 278.557 242.982 276.936 243.282C268.545 242.336 259.902 241.862 251.01 241.862C242.117 241.862 233.475 242.336 225.083 243.282C223.461 243.658 222.04 244.368 220.821 245.413C219.179 246.108 217.996 247.292 217.27 248.965C215.544 249.508 214.597 250.692 214.428 252.517C213.181 253.264 212.707 254.448 213.008 256.068C211.733 260.035 211.14 264.296 211.232 268.854C209.848 269.286 208.545 269.76 207.325 270.275C206.615 270.748 205.905 271.221 205.194 271.695C205.194 271.932 205.194 272.169 205.194 272.405C203.786 272.162 202.838 272.636 202.353 273.826C197.039 275.349 193.251 278.663 190.988 283.771C189.262 284.314 188.316 285.497 188.147 287.322C186.899 288.069 186.425 289.254 186.726 290.874C185.071 293.702 184.361 296.78 184.595 300.108C183.412 330.527 182.702 361.07 182.464 391.739C173.644 385.913 166.068 378.81 159.734 370.429C158.006 368.925 156.821 367.031 156.182 364.747C155.531 364.302 154.821 364.064 154.051 364.037C151.842 361.065 150.185 357.75 149.079 354.092C148.867 352.703 148.156 351.756 146.948 351.251C145.955 347.947 144.534 344.751 142.686 341.662C141.793 338.488 141.082 335.291 140.555 332.072C140.364 329.637 139.654 327.506 138.424 325.679C138.648 322.93 138.411 320.325 137.714 317.866C137.497 311.177 137.734 304.547 138.424 297.977C138.424 295.372 138.424 292.768 138.424 290.163C139.515 289.08 140.226 287.66 140.555 285.902C141.247 284.308 141.484 282.651 141.265 280.929C141.941 279.921 142.178 278.738 141.976 277.378C143.222 274.378 144.407 271.3 145.527 268.144C146.736 267.639 147.446 266.691 147.658 265.302C148.613 263.139 149.56 261.008 150.5 258.909C151.269 258.882 151.979 258.644 152.631 258.199C153.7 256.053 154.647 253.922 155.472 251.806C155.946 250.859 156.656 250.149 157.603 249.675C159.3 248.441 160.485 246.784 161.154 244.703C165.499 239.771 170.59 235.745 176.426 232.628C177.917 232.069 179.457 231.832 181.043 231.917C182.432 231.705 183.38 230.995 183.885 229.786C185.245 229.988 186.428 229.752 187.436 229.076C189.523 228.737 191.417 228.027 193.119 226.945C198.477 224.365 204.16 222.708 210.166 221.973C214.082 221.495 217.87 220.784 221.532 219.842C227.085 218.949 232.767 218.239 238.579 217.711C244.623 218.281 250.542 218.992 256.337 219.842Z" fill="#FDFEFE"/>
<path fill-rule="evenodd" clip-rule="evenodd" d="M256.338 219.842C258.833 219.448 260.963 219.922 262.731 221.263C262.494 221.263 262.257 221.263 262.02 221.263C260.126 220.789 258.232 220.316 256.338 219.842Z" fill="#6E8ECF"/>
<path fill-rule="evenodd" clip-rule="evenodd" d="M221.532 219.843C217.87 220.786 214.082 221.496 210.167 221.974C213.719 220.46 217.507 219.749 221.532 219.843Z" fill="#98AEDD"/>
<path fill-rule="evenodd" clip-rule="evenodd" d="M262.02 221.263C262.257 221.263 262.494 221.263 262.73 221.263C266.063 221.21 269.141 221.92 271.964 223.394C271.964 223.631 271.964 223.868 271.964 224.104C268.647 222.922 265.333 221.975 262.02 221.263Z" fill="#CCD7EE"/>
<path fill-rule="evenodd" clip-rule="evenodd" d="M110.013 222.683C109.528 223.873 108.58 224.347 107.171 224.103C108.003 223.503 108.951 223.03 110.013 222.683Z" fill="#3973C1"/>
<path fill-rule="evenodd" clip-rule="evenodd" d="M271.966 224.104C271.966 223.867 271.966 223.63 271.966 223.393C274.017 223.031 275.674 223.504 276.938 224.814C275.363 224.197 273.706 223.96 271.966 224.104Z" fill="#7E9AD4"/>
<path fill-rule="evenodd" clip-rule="evenodd" d="M193.117 226.944C191.415 228.026 189.521 228.736 187.435 229.075C187.435 228.839 187.435 228.602 187.435 228.365C189.228 227.555 191.123 227.081 193.117 226.944Z" fill="#C1CDEA"/>
<path fill-rule="evenodd" clip-rule="evenodd" d="M284.04 226.944C286.26 226.934 288.155 227.644 289.723 229.075C287.636 228.737 285.742 228.026 284.04 226.944Z" fill="#B2C2E5"/>
<path fill-rule="evenodd" clip-rule="evenodd" d="M187.439 228.367C187.439 228.604 187.439 228.841 187.439 229.078C186.431 229.753 185.248 229.99 183.888 229.788C184.973 229.213 186.156 228.739 187.439 228.367Z" fill="#6C8CCE"/>
<path fill-rule="evenodd" clip-rule="evenodd" d="M183.884 229.788C183.379 230.996 182.431 231.706 181.042 231.919C181.548 230.71 182.495 230 183.884 229.788Z" fill="#9BB0DE"/>
<path fill-rule="evenodd" clip-rule="evenodd" d="M293.276 230.498C294.684 230.254 295.632 230.728 296.117 231.918C295.055 231.571 294.108 231.098 293.276 230.498Z" fill="#92A8DB"/>
<path fill-rule="evenodd" clip-rule="evenodd" d="M276.936 243.282C259.652 242.336 242.367 242.336 225.083 243.282C233.474 242.336 242.117 241.863 251.009 241.862C259.902 241.863 268.544 242.336 276.936 243.282Z" fill="#9CB2DE"/>
<path fill-rule="evenodd" clip-rule="evenodd" d="M276.936 243.282C278.556 242.982 279.74 243.456 280.487 244.703C279.204 244.331 278.021 243.857 276.936 243.282Z" fill="#698ACE"/>
<path fill-rule="evenodd" clip-rule="evenodd" d="M225.085 243.282C224.074 244.735 222.654 245.445 220.823 245.413C222.042 244.368 223.463 243.658 225.085 243.282Z" fill="#3D61BC"/>
<path fill-rule="evenodd" clip-rule="evenodd" d="M161.158 244.703C160.488 246.784 159.304 248.442 157.606 249.675C158.267 247.618 159.451 245.96 161.158 244.703Z" fill="#ADBDE3"/>
<path fill-rule="evenodd" clip-rule="evenodd" d="M400.528 248.966C401.937 248.723 402.884 249.196 403.37 250.387C402.308 250.04 401.36 249.567 400.528 248.966Z" fill="#437AC4"/>
<path fill-rule="evenodd" clip-rule="evenodd" d="M217.27 248.964C216.571 250.371 215.624 251.555 214.429 252.516C214.598 250.691 215.545 249.508 217.27 248.964Z" fill="#4B6DC2"/>
<path fill-rule="evenodd" clip-rule="evenodd" d="M214.429 252.518C214.056 253.801 213.583 254.984 213.008 256.07C212.707 254.449 213.181 253.265 214.429 252.518Z" fill="#94ABDC"/>
<path fill-rule="evenodd" clip-rule="evenodd" d="M289.725 250.385C290.818 252.045 291.292 253.94 291.145 256.067C290.245 254.359 289.771 252.465 289.725 250.385Z" fill="#6D8BCE"/>
<path fill-rule="evenodd" clip-rule="evenodd" d="M213.009 256.067C212.445 260.509 212.09 265.007 211.943 269.563C210.736 270.206 209.434 270.443 208.036 270.273C207.8 270.273 207.563 270.273 207.326 270.273C208.546 269.759 209.849 269.285 211.233 268.853C211.141 264.295 211.734 260.033 213.009 256.067Z" fill="#B8C7E7"/>
<path fill-rule="evenodd" clip-rule="evenodd" d="M291.145 256.067C292.328 302.351 293.039 348.759 293.276 395.289C293.233 395.675 292.997 395.912 292.566 396C292.09 349.308 291.616 302.663 291.145 256.067Z" fill="#819DD5"/>
<path fill-rule="evenodd" clip-rule="evenodd" d="M155.474 251.806C154.649 253.921 153.701 256.052 152.632 258.199C151.981 258.644 151.271 258.881 150.501 258.909C151.955 256.363 153.613 253.995 155.474 251.806Z" fill="#CAD5ED"/>
<path fill-rule="evenodd" clip-rule="evenodd" d="M263.439 403.105C262.492 403.105 261.544 403.105 260.597 403.105C260.833 366.758 260.597 330.532 259.887 294.426C259.651 294.426 259.413 294.426 259.177 294.426C259.477 292.806 259.003 291.621 257.756 290.874C257.924 289.957 257.688 289.247 257.046 288.743C257.078 286.913 256.367 285.492 254.915 284.481C253.968 283.463 252.902 282.516 251.718 281.64C251.375 280.967 251.257 280.256 251.363 279.509C248.655 278.706 246.524 277.049 244.97 274.537C241.807 272.696 238.493 271.275 235.026 270.275C235.026 267.67 235.026 265.066 235.026 262.461C246.391 262.461 257.756 262.461 269.121 262.461C269.121 309.106 269.121 355.75 269.121 402.394C267.072 402.177 265.178 402.413 263.439 403.105Z" fill="#FEFEFE"/>
<path fill-rule="evenodd" clip-rule="evenodd" d="M263.443 403.105C265.181 402.414 267.076 402.177 269.125 402.395C269.125 355.75 269.125 309.106 269.125 262.462C257.76 262.462 246.395 262.462 235.03 262.462C235.03 265.067 235.03 267.671 235.03 270.275C234.332 267.577 234.094 264.736 234.32 261.751C246.158 261.751 257.997 261.751 269.836 261.751C269.836 308.869 269.836 355.987 269.836 403.105C267.705 403.105 265.574 403.105 263.443 403.105Z" fill="#86A1D7"/>
<path fill-rule="evenodd" clip-rule="evenodd" d="M147.658 265.303C147.446 266.691 146.736 267.639 145.527 268.144C145.74 266.755 146.45 265.808 147.658 265.303Z" fill="#7E9AD4"/>
<path fill-rule="evenodd" clip-rule="evenodd" d="M111.434 278.799C110.897 280.613 110.424 282.507 110.013 284.482C110.233 286.764 109.997 288.895 109.303 290.875C108.357 296.3 107.884 301.982 107.882 307.922C107.882 313.728 108.119 319.411 108.592 324.97C108.829 324.97 109.066 324.97 109.303 324.97C108.899 327.69 109.372 330.058 110.723 332.073C110.343 334.345 110.816 336.239 112.144 337.756C112.634 340.837 113.226 343.915 113.92 346.99C115.691 350.766 117.23 354.555 118.537 358.355C118.606 360.307 117.896 360.78 116.406 359.775C113.212 358.763 110.607 356.869 108.592 354.093C107.761 353.493 106.813 353.02 105.751 352.672C98.8433 348.038 92.2132 343.066 85.8622 337.756C85.3572 336.547 84.4096 335.837 83.0209 335.625C81.8368 334.441 80.6535 333.257 79.4694 332.073C78.2853 330.889 77.1019 329.706 75.9178 328.521C71.1316 325.403 66.8697 321.614 63.132 317.156C62.6582 315.736 61.7114 314.789 60.2908 314.315C59.5804 314.079 59.1067 313.605 58.8701 312.894C59.8674 311.648 60.5777 310.227 61.0011 308.632C61.2376 308.632 61.4749 308.632 61.7114 308.632C63.441 308.086 64.3886 306.901 64.5527 305.081C64.7892 305.081 65.0264 305.081 65.263 305.081C66.9926 304.534 67.9402 303.35 68.1043 301.529C68.3408 301.529 68.578 301.529 68.8146 301.529C70.2032 301.317 71.1508 300.607 71.6559 299.398C73.4764 299.234 74.6605 298.287 75.2074 296.557C75.2074 296.083 75.444 295.847 75.9178 295.847C78.2355 295.647 79.6562 294.463 80.1797 292.295C85.8736 287.474 91.7927 282.976 97.9376 278.799C99.484 278.246 100.668 277.298 101.489 275.958C102.2 275.248 102.91 274.537 103.62 273.827C105.029 274.071 105.976 273.597 106.461 272.406C106.935 272.406 107.172 272.17 107.172 271.696C108.58 271.94 109.528 271.466 110.013 270.275C111.015 268.827 112.436 268.117 114.275 268.144C114.004 271.934 113.057 275.485 111.434 278.799Z" fill="#FBFCFD"/>
<path fill-rule="evenodd" clip-rule="evenodd" d="M110.013 270.274C109.528 271.465 108.58 271.939 107.171 271.695C108.003 271.095 108.951 270.622 110.013 270.274Z" fill="#91A8DA"/>
<path fill-rule="evenodd" clip-rule="evenodd" d="M207.324 270.274C207.56 270.274 207.798 270.274 208.034 270.274C207.549 271.465 206.601 271.939 205.193 271.695C205.903 271.221 206.614 270.748 207.324 270.274Z" fill="#6482CB"/>
<path fill-rule="evenodd" clip-rule="evenodd" d="M330.211 268.854C330.811 269.685 331.284 270.633 331.632 271.695C330.441 271.21 329.967 270.262 330.211 268.854Z" fill="#6888CD"/>
<path fill-rule="evenodd" clip-rule="evenodd" d="M362.885 270.274C363.359 270.274 363.595 270.511 363.595 270.985C364.427 271.585 365.374 272.058 366.436 272.405C371.365 275.91 376.101 279.698 380.643 283.77C381.604 284.966 382.788 285.913 384.194 286.612C385.885 288.165 387.779 289.349 389.877 290.163C390.113 292.294 391.298 293.478 393.428 293.715C393.916 296.451 395.574 297.635 398.401 297.267C401.242 300.108 404.083 302.949 406.925 305.79C407.886 306.986 409.07 307.933 410.476 308.632C411.647 309.562 412.83 310.509 414.028 311.473C407.311 318.433 400.208 324.826 392.718 330.652C391.506 331.627 390.559 332.81 389.877 334.203C389.64 334.203 389.403 334.203 389.167 334.203C388.133 335.364 386.949 336.311 385.615 337.044C384.905 337.281 384.431 337.755 384.194 338.465C381.827 339.412 380.169 341.07 379.222 343.437C378.206 343.381 377.259 343.618 376.381 344.148C373.116 347.342 369.801 350.42 366.436 353.382C365.726 353.382 365.016 353.382 364.305 353.382C364.305 352.435 364.305 351.487 364.305 350.54C365.309 347.606 366.019 344.528 366.436 341.306C367.666 339.48 368.376 337.349 368.567 334.913C369.224 328.071 369.697 321.204 369.988 314.314C369.697 307.424 369.224 300.557 368.567 293.715C368.143 291.271 367.67 288.903 367.147 286.612C366.91 286.612 366.673 286.612 366.436 286.612C366.799 284.56 366.326 282.903 365.016 281.64C365.016 280.693 365.016 279.745 365.016 278.798C364.614 277.057 364.141 275.399 363.595 273.826C363.359 273.826 363.121 273.826 362.885 273.826C362.885 272.642 362.885 271.459 362.885 270.274Z" fill="#FCFCFE"/>
<path fill-rule="evenodd" clip-rule="evenodd" d="M363.595 270.984C365.004 270.741 365.951 271.215 366.436 272.405C365.375 272.058 364.427 271.585 363.595 270.984Z" fill="#7E9AD4"/>
<path fill-rule="evenodd" clip-rule="evenodd" d="M428.23 270.274C430.361 270.511 431.546 271.695 431.782 273.826C430.396 272.913 429.212 271.73 428.23 270.274Z" fill="#A9CAE5"/>
<path fill-rule="evenodd" clip-rule="evenodd" d="M362.885 270.275C362.885 271.459 362.885 272.643 362.885 273.827C362.329 272.518 361.855 271.097 361.464 269.565C362.312 268.734 362.786 268.97 362.885 270.275Z" fill="#7291D0"/>
<path fill-rule="evenodd" clip-rule="evenodd" d="M40.3981 272.405C40.45 273.489 39.9762 274.2 38.9775 274.536C38.9256 273.451 39.3994 272.741 40.3981 272.405Z" fill="#6E9ED3"/>
<path fill-rule="evenodd" clip-rule="evenodd" d="M106.459 272.405C105.974 273.595 105.027 274.069 103.618 273.825C104.45 273.225 105.398 272.752 106.459 272.405Z" fill="#7A95D2"/>
<path fill-rule="evenodd" clip-rule="evenodd" d="M205.196 272.407C204.364 273.007 203.416 273.481 202.354 273.828C202.84 272.637 203.787 272.164 205.196 272.407Z" fill="#6888CC"/>
<path fill-rule="evenodd" clip-rule="evenodd" d="M363.595 273.826C364.141 275.399 364.615 277.056 365.016 278.798C363.706 277.534 363.233 275.877 363.595 273.826Z" fill="#98AFDD"/>
<path fill-rule="evenodd" clip-rule="evenodd" d="M431.789 273.826C433.863 274.487 435.52 275.67 436.761 277.377C434.415 277.21 432.757 276.026 431.789 273.826Z" fill="#A4C4E4"/>
<path fill-rule="evenodd" clip-rule="evenodd" d="M38.9808 274.536C38.0339 275.956 36.8498 277.14 35.4292 278.087C35.903 276.193 37.0864 275.009 38.9808 274.536Z" fill="#6392CE"/>
<path fill-rule="evenodd" clip-rule="evenodd" d="M101.49 275.956C100.669 277.296 99.4848 278.244 97.9385 278.797C98.609 277.243 99.7931 276.296 101.49 275.956Z" fill="#829BD5"/>
<path fill-rule="evenodd" clip-rule="evenodd" d="M141.979 277.377C142.18 278.737 141.944 279.921 141.268 280.929C141.032 280.929 140.795 280.929 140.558 280.929C140.93 279.646 141.404 278.462 141.979 277.377Z" fill="#5B7FC8"/>
<path fill-rule="evenodd" clip-rule="evenodd" d="M331.629 274.538C333.645 276.12 334.829 278.251 335.181 280.931C333.791 279.029 332.607 276.898 331.629 274.538Z" fill="#6C8ACE"/>
<path fill-rule="evenodd" clip-rule="evenodd" d="M111.433 278.8C111.814 281.071 111.34 282.966 110.013 284.482C110.423 282.508 110.897 280.613 111.433 278.8Z" fill="#4A72C3"/>
<path fill-rule="evenodd" clip-rule="evenodd" d="M35.4295 278.089C34.4827 279.51 33.2986 280.694 31.8779 281.641C32.3517 279.747 33.5351 278.563 35.4295 278.089Z" fill="#5A8BCC"/>
<path fill-rule="evenodd" clip-rule="evenodd" d="M365.013 281.641C366.323 282.904 366.796 284.561 366.434 286.613C365.888 285.04 365.415 283.382 365.013 281.641Z" fill="#6C8DCE"/>
<path fill-rule="evenodd" clip-rule="evenodd" d="M190.986 283.771C190.287 285.178 189.34 286.362 188.145 287.323C188.314 285.498 189.26 284.315 190.986 283.771Z" fill="#5272C3"/>
<path fill-rule="evenodd" clip-rule="evenodd" d="M380.644 283.771C382.468 283.941 383.652 284.887 384.195 286.613C382.789 285.914 381.605 284.967 380.644 283.771Z" fill="#BFCBE9"/>
<path fill-rule="evenodd" clip-rule="evenodd" d="M140.556 280.93C140.792 280.93 141.03 280.93 141.266 280.93C141.485 282.652 141.248 284.309 140.556 285.902C140.226 287.66 139.516 289.081 138.425 290.164C139.424 287.163 140.135 284.085 140.556 280.93Z" fill="#98AEDD"/>
<path fill-rule="evenodd" clip-rule="evenodd" d="M254.92 284.481C256.373 285.492 257.083 286.913 257.051 288.743C256.006 287.524 255.296 286.104 254.92 284.481Z" fill="#BBC9E9"/>
<path fill-rule="evenodd" clip-rule="evenodd" d="M367.148 286.612C367.671 288.903 368.144 291.271 368.568 293.715C367.217 291.7 366.744 289.332 367.148 286.612Z" fill="#97AEDC"/>
<path fill-rule="evenodd" clip-rule="evenodd" d="M188.149 287.323C187.777 288.606 187.303 289.789 186.729 290.874C186.428 289.254 186.902 288.07 188.149 287.323Z" fill="#9BB0DE"/>
<path fill-rule="evenodd" clip-rule="evenodd" d="M215.847 289.453C217.965 288.981 220.214 288.745 222.595 288.743C225.135 288.754 227.384 289.228 229.343 290.164C224.908 289.483 220.409 289.247 215.847 289.453Z" fill="#B8C8E8"/>
<path fill-rule="evenodd" clip-rule="evenodd" d="M215.85 289.454C220.412 289.247 224.911 289.484 229.346 290.164C232.454 290.67 235.059 292.091 237.159 294.426C236.916 295.835 237.389 296.782 238.58 297.268C238.412 298.185 238.648 298.895 239.29 299.399C239.29 334.441 239.29 369.484 239.29 404.526C234.318 404.526 229.346 404.526 224.374 404.526C221.676 403.828 218.835 403.59 215.85 403.815C214.333 402.488 212.439 402.014 210.167 402.395C209.16 401.111 207.739 400.637 205.905 400.974C205.905 367.115 205.905 333.257 205.905 299.399C205.605 297.778 206.079 296.594 207.326 295.847C209.22 294.426 210.878 292.769 212.298 290.875C213.482 290.401 214.666 289.928 215.85 289.454Z" fill="#FEFEFE"/>
<path fill-rule="evenodd" clip-rule="evenodd" d="M336.604 287.323C337.913 288.586 338.386 290.244 338.024 292.295C337.479 290.722 337.005 289.064 336.604 287.323Z" fill="#688ACD"/>
<path fill-rule="evenodd" clip-rule="evenodd" d="M109.3 290.874C108.601 302.184 108.365 313.549 108.59 324.969C108.117 319.41 107.879 313.728 107.879 307.922C107.881 301.982 108.355 296.299 109.3 290.874Z" fill="#ABBEE3"/>
<path fill-rule="evenodd" clip-rule="evenodd" d="M257.759 290.874C259.006 291.621 259.48 292.805 259.179 294.426C258.605 293.34 258.131 292.157 257.759 290.874Z" fill="#8CA5D9"/>
<path fill-rule="evenodd" clip-rule="evenodd" d="M212.298 290.874C210.878 292.768 209.221 294.426 207.326 295.846C208.273 293.479 209.931 291.821 212.298 290.874Z" fill="#BECAE9"/>
<path fill-rule="evenodd" clip-rule="evenodd" d="M389.875 290.164C391.059 291.348 392.242 292.531 393.426 293.715C391.295 293.479 390.111 292.295 389.875 290.164Z" fill="#BBC8E8"/>
<path fill-rule="evenodd" clip-rule="evenodd" d="M80.1779 292.294C79.6544 294.462 78.2338 295.646 75.916 295.846C77.2862 294.675 78.7069 293.491 80.1779 292.294Z" fill="#BCC9E8"/>
<path fill-rule="evenodd" clip-rule="evenodd" d="M338.736 292.294C339.26 294.585 339.733 296.953 340.157 299.398C339.921 299.398 339.683 299.398 339.447 299.398C338.751 297.178 338.514 294.81 338.736 292.294Z" fill="#3D67BE"/>
<path fill-rule="evenodd" clip-rule="evenodd" d="M393.428 293.715C394.735 295.43 396.392 296.614 398.4 297.266C395.574 297.635 393.916 296.451 393.428 293.715Z" fill="#B7C5E7"/>
<path fill-rule="evenodd" clip-rule="evenodd" d="M237.156 294.425C237.757 295.257 238.23 296.205 238.577 297.267C237.386 296.781 236.913 295.834 237.156 294.425Z" fill="#6686CC"/>
<path fill-rule="evenodd" clip-rule="evenodd" d="M75.2059 296.556C74.6589 298.285 73.4748 299.233 71.6543 299.397C72.6296 298.184 73.813 297.238 75.2059 296.556Z" fill="#B3C2E5"/>
<path fill-rule="evenodd" clip-rule="evenodd" d="M138.423 297.977C137.732 304.547 137.496 311.176 137.712 317.865C137.239 314.678 137.003 311.363 137.002 307.921C137.007 304.333 137.48 301.019 138.423 297.977Z" fill="#BAC9E8"/>
<path fill-rule="evenodd" clip-rule="evenodd" d="M71.6572 299.397C71.1522 300.605 70.2046 301.316 68.8159 301.528C69.321 300.32 70.2685 299.609 71.6572 299.397Z" fill="#88A1D8"/>
<path fill-rule="evenodd" clip-rule="evenodd" d="M205.907 299.397C205.907 333.256 205.907 367.114 205.907 400.973C207.741 400.635 209.161 401.109 210.168 402.393C208.594 401.776 206.936 401.539 205.196 401.683C204.96 367.467 205.197 333.372 205.907 299.397Z" fill="#DEE5F4"/>
<path fill-rule="evenodd" clip-rule="evenodd" d="M239.289 299.397C239.998 334.556 240.235 369.835 239.999 405.234C234.79 405.234 229.581 405.234 224.372 405.234C224.372 404.998 224.372 404.761 224.372 404.524C229.344 404.524 234.317 404.524 239.289 404.524C239.289 369.482 239.289 334.439 239.289 299.397Z" fill="#8CA6D9"/>
<path fill-rule="evenodd" clip-rule="evenodd" d="M11.9915 300.107C11.4446 301.837 10.2605 302.784 8.43994 302.948C9.41521 301.736 10.5986 300.789 11.9915 300.107Z" fill="#4D6DC1"/>
<path fill-rule="evenodd" clip-rule="evenodd" d="M259.887 294.425C260.597 330.532 260.833 366.758 260.598 403.104C261.544 403.104 262.492 403.104 263.439 403.104C262.431 403.78 261.247 404.016 259.887 403.814C259.887 367.352 259.887 330.888 259.887 294.425Z" fill="#B8C8E8"/>
<path fill-rule="evenodd" clip-rule="evenodd" d="M184.596 300.107C184.126 330.84 183.652 361.621 183.175 392.448C182.744 392.36 182.507 392.124 182.465 391.738C182.703 361.069 183.413 330.526 184.596 300.107Z" fill="#91AADA"/>
<path fill-rule="evenodd" clip-rule="evenodd" d="M68.0986 301.53C67.9345 303.35 66.9869 304.534 65.2573 305.081C65.9392 303.688 66.8861 302.505 68.0986 301.53Z" fill="#B1BFE5"/>
<path fill-rule="evenodd" clip-rule="evenodd" d="M8.43538 303.661C7.88844 305.39 6.70433 306.338 4.88379 306.502C5.85906 305.289 7.04245 304.343 8.43538 303.661Z" fill="#4466BE"/>
<path fill-rule="evenodd" clip-rule="evenodd" d="M64.5522 305.081C64.3881 306.902 63.4406 308.086 61.7109 308.633C62.3928 307.24 63.3397 306.056 64.5522 305.081Z" fill="#BBC8E8"/>
<path fill-rule="evenodd" clip-rule="evenodd" d="M406.925 305.792C408.75 305.961 409.933 306.907 410.477 308.633C409.07 307.934 407.886 306.987 406.925 305.792Z" fill="#B7C5E7"/>
<path fill-rule="evenodd" clip-rule="evenodd" d="M4.88424 306.501C4.48859 308.313 3.54174 309.733 2.04297 310.763C2.42441 308.962 3.37126 307.541 4.88424 306.501Z" fill="#3E63BC"/>
<path fill-rule="evenodd" clip-rule="evenodd" d="M469.434 310.053C470.429 310.387 471.376 310.861 472.275 311.473C472.023 312.199 471.549 312.673 470.855 312.894C470.381 311.947 469.908 311 469.434 310.053Z" fill="#4E72C3"/>
<path fill-rule="evenodd" clip-rule="evenodd" d="M2.04164 310.763C1.74117 311.307 1.50393 311.898 1.33132 312.539C1.99121 313.304 2.46499 314.133 2.75196 315.025C-0.660415 313.925 -0.896951 312.504 2.04164 310.763Z" fill="#4266BD"/>
<path fill-rule="evenodd" clip-rule="evenodd" d="M61.0008 308.632C60.5775 310.227 59.8671 311.648 58.8699 312.894C58.1752 312.673 57.7014 312.2 57.4492 311.474C58.8422 310.708 60.0263 309.761 61.0008 308.632Z" fill="#AFC5E5"/>
<path fill-rule="evenodd" clip-rule="evenodd" d="M60.2925 314.314C61.7131 314.788 62.66 315.735 63.1338 317.156C61.7131 316.682 60.7663 315.735 60.2925 314.314Z" fill="#9EB0DE"/>
<path fill-rule="evenodd" clip-rule="evenodd" d="M339.447 299.397C339.684 299.397 339.921 299.397 340.158 299.397C339.835 304.11 340.308 308.727 341.578 313.248C340.511 318.619 339.801 323.946 339.447 329.23C339.053 323.783 339.527 318.456 340.868 313.248C339.54 308.758 339.067 304.14 339.447 299.397Z" fill="#98AEDD"/>
<path fill-rule="evenodd" clip-rule="evenodd" d="M3.46094 316.445C5.26231 316.827 6.68294 317.774 7.72285 319.287C5.75882 319.137 4.33818 318.191 3.46094 316.445Z" fill="#AAC7E5"/>
<path fill-rule="evenodd" clip-rule="evenodd" d="M7.72705 319.286C9.14769 320.233 10.3318 321.417 11.2786 322.838C9.14769 322.601 7.96359 321.417 7.72705 319.286Z" fill="#9DBFE2"/>
<path fill-rule="evenodd" clip-rule="evenodd" d="M11.2764 322.84C12.2232 323.314 12.9335 324.024 13.4073 324.971C11.9867 324.971 11.2764 324.26 11.2764 322.84Z" fill="#91B8DF"/>
<path fill-rule="evenodd" clip-rule="evenodd" d="M461.62 322.127C460.045 323.924 458.15 325.345 455.937 326.389C457.358 324.337 459.252 322.916 461.62 322.127Z" fill="#8FB1DC"/>
<path fill-rule="evenodd" clip-rule="evenodd" d="M109.304 324.971C109.827 327.261 110.3 329.63 110.724 332.074C109.373 330.059 108.899 327.691 109.304 324.971Z" fill="#7C99D4"/>
<path fill-rule="evenodd" clip-rule="evenodd" d="M138.425 325.678C139.654 327.504 140.365 329.635 140.556 332.071C139.326 330.245 138.616 328.114 138.425 325.678Z" fill="#88A2D7"/>
<path fill-rule="evenodd" clip-rule="evenodd" d="M13.4067 324.971C14.8274 325.918 16.0115 327.102 16.9583 328.522C14.8274 328.286 13.6433 327.102 13.4067 324.971Z" fill="#A8CAE5"/>
<path fill-rule="evenodd" clip-rule="evenodd" d="M455.935 326.391C455.531 328.405 454.347 329.588 452.383 329.943C453.33 328.522 454.514 327.338 455.935 326.391Z" fill="#A6C5E4"/>
<path fill-rule="evenodd" clip-rule="evenodd" d="M75.916 328.522C77.1001 329.706 78.2835 330.889 79.4676 332.074C77.3367 331.837 76.1526 330.653 75.916 328.522Z" fill="#4364BE"/>
<path fill-rule="evenodd" clip-rule="evenodd" d="M339.442 329.942C339.823 332.214 339.349 334.108 338.021 335.625C338.432 333.65 338.906 331.756 339.442 329.942Z" fill="#3863BD"/>
<path fill-rule="evenodd" clip-rule="evenodd" d="M392.716 330.652C392.552 332.473 391.604 333.657 389.875 334.204C390.556 332.811 391.503 331.628 392.716 330.652Z" fill="#4F6DC2"/>
<path fill-rule="evenodd" clip-rule="evenodd" d="M110.723 332.073C111.26 333.887 111.733 335.781 112.144 337.756C110.816 336.239 110.343 334.345 110.723 332.073Z" fill="#4F76C5"/>
<path fill-rule="evenodd" clip-rule="evenodd" d="M452.382 329.942C451.391 333.17 449.26 335.301 445.989 336.335C447.612 333.765 449.743 331.634 452.382 329.942Z" fill="#98B9DE"/>
<path fill-rule="evenodd" clip-rule="evenodd" d="M368.565 334.914C368.374 337.35 367.664 339.481 366.434 341.307C366.625 338.871 367.335 336.74 368.565 334.914Z" fill="#97AEDC"/>
<path fill-rule="evenodd" clip-rule="evenodd" d="M83.0181 335.624C84.4067 335.836 85.3543 336.547 85.8593 337.755C84.4707 337.543 83.5231 336.832 83.0181 335.624Z" fill="#4F74C5"/>
<path fill-rule="evenodd" clip-rule="evenodd" d="M389.167 334.204C388.963 336.323 387.779 337.27 385.615 337.045C386.949 336.312 388.133 335.364 389.167 334.204Z" fill="#4465BE"/>
<path fill-rule="evenodd" clip-rule="evenodd" d="M445.994 336.337C445.52 338.231 444.337 339.415 442.442 339.889C443.389 338.468 444.573 337.284 445.994 336.337Z" fill="#90B4DC"/>
<path fill-rule="evenodd" clip-rule="evenodd" d="M384.195 338.465C382.775 340.36 381.118 342.017 379.223 343.438C380.17 341.07 381.828 339.412 384.195 338.465Z" fill="#4C6AC1"/>
<path fill-rule="evenodd" clip-rule="evenodd" d="M336.606 339.886C336.968 341.937 336.495 343.594 335.185 344.858C335.586 343.116 336.06 341.459 336.606 339.886Z" fill="#93AADB"/>
<path fill-rule="evenodd" clip-rule="evenodd" d="M442.44 339.887C441.966 341.781 440.783 342.964 438.889 343.438C439.423 342.302 440.133 341.236 441.02 340.242C441.442 339.912 441.915 339.794 442.44 339.887Z" fill="#95B8DE"/>
<path fill-rule="evenodd" clip-rule="evenodd" d="M438.887 343.438C438.551 344.437 437.841 344.911 436.756 344.859C437.092 343.86 437.802 343.387 438.887 343.438Z" fill="#719BD1"/>
<path fill-rule="evenodd" clip-rule="evenodd" d="M435.336 346.99C435 347.988 434.289 348.462 433.205 348.41C433.541 347.412 434.251 346.938 435.336 346.99Z" fill="#7AA3D4"/>
<path fill-rule="evenodd" clip-rule="evenodd" d="M335.178 347.701C334.831 348.763 334.358 349.71 333.757 350.542C333.514 349.133 333.988 348.186 335.178 347.701Z" fill="#6486CC"/>
<path fill-rule="evenodd" clip-rule="evenodd" d="M27.6143 339.175C33.0383 343.888 38.2477 348.86 43.2413 354.092C41.5692 353.728 40.1485 352.899 38.9794 351.606C35.0087 347.522 31.2205 343.378 27.6143 339.175Z" fill="#B9D3E9"/>
<path fill-rule="evenodd" clip-rule="evenodd" d="M433.207 348.411C432.803 350.425 431.619 351.608 429.655 351.963C430.602 350.542 431.786 349.358 433.207 348.411Z" fill="#9DBEE1"/>
<path fill-rule="evenodd" clip-rule="evenodd" d="M146.95 351.25C148.158 351.755 148.869 352.703 149.081 354.091C147.873 353.586 147.163 352.639 146.95 351.25Z" fill="#A5B9E0"/>
<path fill-rule="evenodd" clip-rule="evenodd" d="M105.753 352.672C106.815 353.02 107.763 353.493 108.595 354.093C107.186 354.337 106.239 353.863 105.753 352.672Z" fill="#98AEDD"/>
<path fill-rule="evenodd" clip-rule="evenodd" d="M364.305 350.542C364.305 351.489 364.305 352.436 364.305 353.383C365.016 353.383 365.726 353.383 366.436 353.383C365.34 354.388 364.156 354.624 362.885 354.094C363.26 352.789 363.733 351.605 364.305 350.542Z" fill="#93AADB"/>
<path fill-rule="evenodd" clip-rule="evenodd" d="M429.654 351.962C429.249 353.976 428.065 355.16 426.102 355.514C427.049 354.093 428.233 352.909 429.654 351.962Z" fill="#A7C5E4"/>
<path fill-rule="evenodd" clip-rule="evenodd" d="M118.536 358.354C119.451 359.445 119.451 360.628 118.536 361.906C117.319 361.637 116.609 360.927 116.405 359.775C117.895 360.78 118.605 360.306 118.536 358.354Z" fill="#A4B6E0"/>
<path fill-rule="evenodd" clip-rule="evenodd" d="M330.919 356.224C330.849 358.453 329.902 360.111 328.078 361.196C328.82 359.377 329.767 357.72 330.919 356.224Z" fill="#6785CB"/>
<path fill-rule="evenodd" clip-rule="evenodd" d="M326.655 364.039C326.308 365.101 325.835 366.049 325.234 366.88C324.991 365.472 325.465 364.524 326.655 364.039Z" fill="#829DD6"/>
<path fill-rule="evenodd" clip-rule="evenodd" d="M56.7368 365.457C57.7987 365.804 58.7463 366.277 59.5781 366.878C58.1695 367.121 57.222 366.648 56.7368 365.457Z" fill="#4679C3"/>
<path fill-rule="evenodd" clip-rule="evenodd" d="M414.025 366.168C413.194 366.768 412.246 367.241 411.184 367.588C411.669 366.398 412.617 365.924 414.025 366.168Z" fill="#4275C1"/>
<path fill-rule="evenodd" clip-rule="evenodd" d="M154.05 364.037C154.82 364.064 155.53 364.302 156.181 364.747C156.821 367.031 158.005 368.925 159.733 370.429C158.596 369.895 157.531 369.185 156.536 368.299C156.237 366.509 155.408 365.088 154.05 364.037Z" fill="#B9C7E7"/>
<path fill-rule="evenodd" clip-rule="evenodd" d="M324.527 367.588C324.315 368.977 323.604 369.924 322.396 370.429C322.608 369.04 323.319 368.093 324.527 367.588Z" fill="#597CC8"/>
<path fill-rule="evenodd" clip-rule="evenodd" d="M426.101 356.223C415.922 366.402 405.504 376.347 394.847 386.056C393.369 386.036 392.066 386.51 390.941 387.477C390.542 387.106 390.068 386.869 389.52 386.766C386.851 387.624 384.602 389.044 382.772 391.028C383.306 389.892 384.016 388.826 384.903 387.832C387.242 386.456 389.61 385.035 392.006 383.57C398.309 378.093 404.702 372.765 411.185 367.588C412.247 367.24 413.194 366.767 414.026 366.167C416.94 362.896 420.018 359.7 423.26 356.578C424.179 356.23 425.126 356.111 426.101 356.223Z" fill="#9AC5E0"/>
<path fill-rule="evenodd" clip-rule="evenodd" d="M317.422 376.823C316.875 378.553 315.691 379.5 313.871 379.665C314.846 378.452 316.029 377.505 317.422 376.823Z" fill="#4D6EC1"/>
<path fill-rule="evenodd" clip-rule="evenodd" d="M313.871 380.375C313.324 382.104 312.14 383.052 310.319 383.216C311.295 382.003 312.478 381.056 313.871 380.375Z" fill="#4466BF"/>
<path fill-rule="evenodd" clip-rule="evenodd" d="M310.322 383.216C310.086 385.347 308.901 386.531 306.771 386.767C307.955 385.583 309.138 384.4 310.322 383.216Z" fill="#4263BD"/>
<path fill-rule="evenodd" clip-rule="evenodd" d="M304.638 388.897C304.153 390.088 303.205 390.562 301.796 390.318C302.628 389.718 303.576 389.245 304.638 388.897Z" fill="#5779C7"/>
<path fill-rule="evenodd" clip-rule="evenodd" d="M47.5015 358.356C48.5513 358.17 49.4982 358.406 50.3427 359.066C52.0155 361.686 54.1465 363.817 56.7356 365.459C57.2208 366.65 58.1683 367.123 59.5769 366.88C62.4132 369.952 65.4917 372.793 68.811 375.404C74.4197 378.711 79.6285 382.618 84.4381 387.124C87.6892 388.409 90.5305 390.303 92.9619 392.806C96.4666 394.441 99.7817 396.335 102.906 398.489C104.514 399.637 105.934 400.939 107.168 402.396C108.791 403.787 110.685 404.734 112.851 405.237C114.67 405.979 116.327 406.926 117.823 408.078C118.655 408.678 119.602 409.151 120.664 409.499C121.138 409.499 121.375 409.735 121.375 410.209C122.206 410.809 123.154 411.282 124.216 411.63C125.688 413.313 127.583 414.26 129.898 414.471C130.609 414.945 131.319 415.418 132.029 415.892C133.159 417.54 134.816 418.251 137.002 418.023C137.002 418.259 137.002 418.496 137.002 418.733C138.927 420.635 141.294 421.582 144.105 421.574C144.105 421.811 144.105 422.048 144.105 422.285C144.348 422.88 144.821 423.117 145.525 422.995C145.619 423.617 145.382 424.091 144.815 424.416C134.95 424.274 125.124 424.274 115.337 424.416C114.826 423.31 113.997 422.6 112.851 422.285C90.8174 401.198 69.0341 379.888 47.5015 358.356Z" fill="#A4CDE3"/>
<path fill-rule="evenodd" clip-rule="evenodd" d="M299.666 392.449C298.919 393.696 297.734 394.17 296.114 393.869C297.2 393.295 298.383 392.821 299.666 392.449Z" fill="#5E81CA"/>
<path fill-rule="evenodd" clip-rule="evenodd" d="M215.847 403.815C218.831 403.59 221.673 403.827 224.371 404.525C224.371 404.762 224.371 404.999 224.371 405.235C221.455 404.803 218.613 404.33 215.847 403.815Z" fill="#3964BD"/>
<path fill-rule="evenodd" clip-rule="evenodd" d="M107.171 402.395C109.452 402.657 111.346 403.604 112.854 405.236C110.688 404.733 108.794 403.786 107.171 402.395Z" fill="#6E9ACF"/>
<path fill-rule="evenodd" clip-rule="evenodd" d="M362.885 403.815C362.4 405.006 361.453 405.48 360.044 405.236C360.876 404.636 361.823 404.163 362.885 403.815Z" fill="#5382C7"/>
<path fill-rule="evenodd" clip-rule="evenodd" d="M117.825 408.077C119.234 407.833 120.181 408.307 120.666 409.497C119.605 409.15 118.657 408.677 117.825 408.077Z" fill="#5080C6"/>
<path fill-rule="evenodd" clip-rule="evenodd" d="M359.33 405.946C359.33 406.656 359.33 407.366 359.33 408.077C357.692 408.427 356.034 408.663 354.357 408.787C356.154 408.107 357.811 407.16 359.33 405.946Z" fill="#729FD1"/>
<path fill-rule="evenodd" clip-rule="evenodd" d="M121.379 410.208C122.787 409.964 123.735 410.438 124.22 411.628C123.158 411.281 122.211 410.808 121.379 410.208Z" fill="#3E6FBE"/>
<path fill-rule="evenodd" clip-rule="evenodd" d="M350.806 411.628C349.974 412.228 349.027 412.701 347.965 413.049C348.45 411.858 349.398 411.384 350.806 411.628Z" fill="#5887C9"/>
<path fill-rule="evenodd" clip-rule="evenodd" d="M124.218 411.628C126.349 412.22 128.244 413.167 129.9 414.469C127.585 414.258 125.69 413.311 124.218 411.628Z" fill="#74A0D2"/>
<path fill-rule="evenodd" clip-rule="evenodd" d="M347.26 413.761C346.428 414.361 345.48 414.834 344.418 415.181C344.904 413.991 345.851 413.517 347.26 413.761Z" fill="#4475C2"/>
<path fill-rule="evenodd" clip-rule="evenodd" d="M132.035 415.89C133.802 416.474 135.46 417.185 137.007 418.021C134.822 418.249 133.165 417.538 132.035 415.89Z" fill="#729FD1"/>
<path fill-rule="evenodd" clip-rule="evenodd" d="M344.417 415.179C342.877 416.54 341.22 417.724 339.445 418.731C338.6 419.391 337.653 419.627 336.604 419.441C338.722 417.294 341.326 415.873 344.417 415.179Z" fill="#7CA8D5"/>
<path fill-rule="evenodd" clip-rule="evenodd" d="M394.85 386.055C370.06 410.843 344.962 435.468 319.557 459.928C318.46 459.784 317.512 459.31 316.715 458.507C315.389 460.446 314.679 460.209 314.584 457.797C301.626 458.029 288.722 457.791 275.872 457.087C275.052 457.97 274.105 458.68 273.031 459.218C272.688 459.891 272.57 460.601 272.676 461.349C271.729 461.349 270.781 461.349 269.834 461.349C269.517 457.135 267.978 456.662 265.217 459.928C264.486 459.689 264.13 459.215 264.152 458.507C270.071 452.114 276.227 445.958 282.62 440.039C287.21 438.433 291.945 437.25 296.826 436.487C299.37 435.849 301.738 434.902 303.93 433.646C305.759 432.172 307.89 431.225 310.322 430.805C313.437 431.04 316.042 430.093 318.136 427.964C319.198 427.616 320.145 427.143 320.977 426.543C326.31 424.544 331.519 422.177 336.604 419.44C337.654 419.626 338.601 419.389 339.446 418.729C341.221 417.722 342.878 416.539 344.418 415.178C345.48 414.831 346.427 414.357 347.259 413.757C347.259 413.283 347.496 413.047 347.969 413.047C349.031 412.7 349.979 412.226 350.811 411.626C352.145 410.893 353.329 409.946 354.362 408.785C356.039 408.661 357.696 408.425 359.334 408.075C359.334 407.364 359.334 406.654 359.334 405.944C359.808 405.944 360.045 405.707 360.045 405.233C361.453 405.477 362.401 405.003 362.886 403.813C368.528 399.844 374.211 395.818 379.934 391.737C380.812 391.207 381.759 390.971 382.775 391.027C384.605 389.043 386.854 387.622 389.523 386.765C390.071 386.868 390.545 387.105 390.944 387.475C392.069 386.509 393.371 386.035 394.85 386.055Z" fill="#ABD1E4"/>
<path fill-rule="evenodd" clip-rule="evenodd" d="M137.002 418.73C139.497 419.456 141.865 420.403 144.105 421.572C141.294 421.58 138.927 420.633 137.002 418.73Z" fill="#729ED1"/>
<path fill-rule="evenodd" clip-rule="evenodd" d="M144.107 422.284C145.667 422.348 147.206 422.585 148.724 422.994C149.701 423.125 150.293 423.599 150.5 424.415C148.843 423.941 147.185 423.468 145.528 422.994C144.823 423.117 144.35 422.879 144.107 422.284Z" fill="#4977C2"/>
<path fill-rule="evenodd" clip-rule="evenodd" d="M320.976 426.545C320.144 427.146 319.197 427.619 318.135 427.966C318.62 426.776 319.567 426.302 320.976 426.545Z" fill="#4574C2"/>
<path fill-rule="evenodd" clip-rule="evenodd" d="M150.501 424.415C154.469 425.41 158.02 427.067 161.156 429.387C158.505 428.612 155.901 427.665 153.343 426.546C152.164 426.069 151.217 425.358 150.501 424.415Z" fill="#6793CD"/>
<path fill-rule="evenodd" clip-rule="evenodd" d="M161.153 429.385C163.28 429.238 165.175 429.712 166.835 430.805C164.756 430.759 162.861 430.285 161.153 429.385Z" fill="#75A1D2"/>
<path fill-rule="evenodd" clip-rule="evenodd" d="M318.133 427.966C316.039 430.096 313.434 431.043 310.319 430.808C312.916 429.976 315.52 429.029 318.133 427.966Z" fill="#759FD2"/>
<path fill-rule="evenodd" clip-rule="evenodd" d="M303.93 433.648C301.738 434.904 299.371 435.851 296.827 436.489C298.766 434.766 301.134 433.819 303.93 433.648Z" fill="#6F9AD0"/>
<path fill-rule="evenodd" clip-rule="evenodd" d="M188.145 437.91C189.886 438.311 191.543 438.785 193.117 439.33C191.065 439.693 189.408 439.219 188.145 437.91Z" fill="#BCCBE9"/>
<path fill-rule="evenodd" clip-rule="evenodd" d="M188.15 437.91C189.413 439.22 191.07 439.693 193.122 439.331C196.443 440.778 199.995 441.488 203.777 441.462C215.503 443.886 227.46 444.834 239.648 444.303C251.216 444.61 262.699 443.899 274.098 442.172C275.924 440.942 278.055 440.232 280.491 440.041C281.201 440.041 281.912 440.041 282.622 440.041C276.229 445.96 270.073 452.116 264.154 458.509C254.471 467.599 244.882 476.833 235.386 486.212C232.164 482.653 228.731 479.339 225.086 476.267C212.44 463.267 199.418 450.6 186.019 438.265C186.692 437.922 187.402 437.804 188.15 437.91Z" fill="#FCFDFE"/>
<path fill-rule="evenodd" clip-rule="evenodd" d="M193.121 439.33C196.817 439.725 200.368 440.435 203.776 441.461C199.994 441.487 196.443 440.777 193.121 439.33Z" fill="#8FA7D9"/>
<path fill-rule="evenodd" clip-rule="evenodd" d="M112.854 422.284C113.999 422.6 114.828 423.31 115.34 424.415C125.126 424.274 134.952 424.274 144.818 424.415C145.385 424.091 145.621 423.617 145.528 422.994C147.185 423.468 148.843 423.941 150.5 424.415C151.216 425.358 152.163 426.069 153.342 426.546C155.9 427.665 158.504 428.612 161.155 429.387C162.863 430.288 164.758 430.762 166.838 430.808C173.938 433.174 181.041 435.542 188.147 437.911C187.4 437.805 186.69 437.923 186.016 438.266C199.416 450.601 212.438 463.268 225.084 476.268C225.084 477.453 225.084 478.636 225.084 479.82C222.953 479.82 220.822 479.82 218.691 479.82C218.691 479.11 218.691 478.399 218.691 477.689C206.37 477.453 194.058 477.689 181.754 478.399C181.281 478.873 180.808 479.346 180.334 479.82C181.403 480.773 181.877 481.957 181.754 483.372C180.165 484.046 178.508 484.519 176.782 484.792C155.203 464.16 133.894 443.324 112.854 422.284Z" fill="#AFD3E5"/>
<path fill-rule="evenodd" clip-rule="evenodd" d="M319.557 459.93C304.859 474.155 290.178 488.362 275.517 502.549C273.71 502.83 272.171 502.357 270.9 501.128C270.675 502.408 270.201 502.644 269.48 501.839C268.512 503.461 267.446 503.58 266.283 502.194C244.094 502.072 221.956 501.717 199.869 501.128C199.314 502.154 199.432 503.101 200.224 503.97C222.212 503.265 244.232 503.028 266.283 503.259C266.283 504.443 266.283 505.627 266.283 506.811C263.668 506.694 261.064 506.812 258.47 507.166C257.328 507.911 256.855 508.977 257.049 510.363C241.42 510.481 225.793 510.363 210.168 510.007C209.285 509.188 208.575 508.24 208.037 507.166C206.636 506.814 205.215 506.696 203.775 506.811C203.775 507.521 203.775 508.232 203.775 508.942C203.065 508.942 202.355 508.942 201.644 508.942C193.251 501.061 184.964 493.011 176.783 484.791C178.509 484.518 180.166 484.045 181.755 483.37C181.878 481.955 181.404 480.772 180.335 479.819C180.809 479.345 181.282 478.872 181.755 478.398C194.059 477.688 206.371 477.451 218.692 477.688C218.692 478.398 218.692 479.109 218.692 479.819C220.823 479.819 222.954 479.819 225.085 479.819C225.085 478.635 225.085 477.451 225.085 476.267C228.73 479.339 232.162 482.653 235.384 486.212C244.881 476.833 254.47 467.599 264.152 458.509C264.131 459.217 264.486 459.691 265.218 459.93C267.978 456.664 269.517 457.137 269.835 461.351C270.782 461.351 271.729 461.351 272.676 461.351C272.57 460.603 272.688 459.893 273.031 459.22C274.105 458.682 275.053 457.972 275.873 457.089C288.722 457.793 301.627 458.031 314.585 457.799C314.679 460.211 315.39 460.448 316.716 458.509C317.513 459.312 318.46 459.786 319.557 459.93Z" fill="#B4D5E6"/>
<path fill-rule="evenodd" clip-rule="evenodd" d="M275.517 502.55C262.516 515.905 249.138 528.927 235.384 541.617C223.798 531.098 212.552 520.206 201.644 508.942C202.354 508.942 203.064 508.942 203.774 508.942C203.774 508.232 203.774 507.522 203.774 506.811C205.214 506.696 206.635 506.815 208.036 507.167C208.574 508.241 209.284 509.188 210.167 510.008C225.792 510.363 241.419 510.482 257.048 510.363C256.854 508.977 257.328 507.912 258.469 507.167C261.063 506.812 263.667 506.694 266.283 506.811C266.283 505.627 266.283 504.444 266.283 503.26C244.231 503.028 222.212 503.266 200.223 503.97C199.432 503.101 199.313 502.155 199.868 501.129C221.955 501.718 244.094 502.073 266.283 502.194C267.445 503.58 268.511 503.462 269.479 501.839C270.201 502.645 270.674 502.408 270.9 501.129C272.17 502.357 273.71 502.831 275.517 502.55Z" fill="#B9D7E6"/>
<path d="M557.871 150.276H670.884C693.255 150.276 709.905 151.24 720.833 153.169C731.89 154.969 741.725 158.826 750.34 164.74C759.082 170.654 766.346 178.561 772.132 188.461C777.918 198.233 780.811 209.225 780.811 221.439C780.811 234.682 777.211 246.832 770.011 257.889C762.939 268.946 753.297 277.238 741.083 282.767C758.311 287.781 771.554 296.331 780.811 308.416C790.068 320.502 794.696 334.709 794.696 351.037C794.696 363.894 791.675 376.43 785.632 388.644C779.718 400.729 771.554 410.436 761.139 417.765C750.854 424.964 738.126 429.4 722.954 431.071C713.44 432.1 690.491 432.743 654.106 433H557.871V150.276ZM614.956 197.333V262.71H652.37C674.612 262.71 688.434 262.389 693.833 261.746C703.605 260.589 711.255 257.246 716.783 251.717C722.44 246.06 725.269 238.668 725.269 229.539C725.269 220.796 722.826 213.725 717.94 208.325C713.183 202.797 706.048 199.454 696.533 198.297C690.876 197.654 674.612 197.333 647.741 197.333H614.956ZM614.956 309.766V385.365H667.798C688.369 385.365 701.419 384.787 706.947 383.629C715.433 382.087 722.312 378.358 727.583 372.444C732.983 366.401 735.683 358.366 735.683 348.337C735.683 339.852 733.626 332.652 729.511 326.738C725.397 320.823 719.419 316.516 711.576 313.816C703.862 311.116 687.019 309.766 661.048 309.766H614.956ZM843.295 433V150.276H900.38V261.553H1012.24V150.276H1069.32V433H1012.24V309.381H900.38V433H843.295ZM1129.3 150.276H1182.72V338.502L1297.27 150.276H1354.17V433H1300.74V248.439L1186.38 433H1129.3V150.276ZM1413.37 150.276H1470.46V270.617C1483.18 269.331 1491.8 266.053 1496.3 260.781C1500.8 255.51 1507.74 240.853 1517.13 216.811C1528.96 186.211 1540.85 167.183 1552.8 159.726C1564.63 152.269 1583.73 148.541 1610.08 148.541C1611.37 148.541 1614.13 148.476 1618.37 148.348V190.583L1610.28 190.39C1598.58 190.39 1590.03 191.868 1584.63 194.825C1579.23 197.654 1574.85 202.025 1571.51 207.94C1568.17 213.854 1563.22 226.003 1556.66 244.389C1553.19 254.16 1549.4 262.324 1545.28 268.881C1541.3 275.438 1534.16 281.61 1523.88 287.395C1536.6 290.995 1547.08 298.259 1555.31 309.188C1563.67 320.116 1572.8 335.545 1582.7 355.473L1621.27 433H1554.15L1520.41 359.908C1519.89 358.88 1518.8 356.887 1517.13 353.93C1516.48 352.901 1514.11 348.466 1509.99 340.623C1502.66 326.738 1496.62 318.059 1491.86 314.588C1487.23 311.116 1480.1 309.316 1470.46 309.188V433H1413.37V150.276ZM1727.14 433V198.104H1643.25V150.276H1867.93V198.104H1784.23V433H1727.14ZM1905.73 150.276H1959.15V338.502L2073.7 150.276H2130.59V433H2077.17V248.439L1962.81 433H1905.73V150.276Z" fill="#003BAD"/>
<path d="M557.725 487.841H570.815V519.986H607.106V487.841H620.196V565.076H607.106V530.822H570.815V565.076H557.725V487.841ZM692.85 540.204L706.377 541.877C704.243 549.779 700.292 555.913 694.522 560.276C688.753 564.64 681.383 566.822 672.414 566.822C661.117 566.822 652.147 563.355 645.505 556.422C638.911 549.44 635.614 539.671 635.614 527.113C635.614 514.119 638.96 504.035 645.651 496.859C652.341 489.684 661.02 486.096 671.686 486.096C682.014 486.096 690.45 489.611 696.995 496.641C703.54 503.671 706.813 513.562 706.813 526.313C706.813 527.089 706.789 528.253 706.74 529.804H649.141C649.626 538.289 652.026 544.786 656.341 549.295C660.656 553.804 666.038 556.058 672.486 556.058C677.286 556.058 681.383 554.798 684.777 552.276C688.171 549.755 690.862 545.731 692.85 540.204ZM649.869 519.041H692.995C692.413 512.544 690.765 507.671 688.05 504.423C683.88 499.38 678.474 496.859 671.832 496.859C665.82 496.859 660.753 498.871 656.632 502.895C652.559 506.92 650.305 512.301 649.869 519.041ZM767.83 458.46H780.921V495.332C783.636 492.229 786.618 489.926 789.866 488.423C793.115 486.871 796.606 486.096 800.339 486.096C809.502 486.096 816.751 489.926 822.084 497.586C827.466 505.198 830.157 514.798 830.157 526.386C830.157 538.458 827.272 548.228 821.502 555.695C815.733 563.113 808.557 566.822 799.975 566.822C797.163 566.822 794.303 566.385 791.394 565.513C788.484 564.64 784.994 562.264 780.921 558.385V594.676H767.83V558.385C765.212 561.197 762.303 563.307 759.103 564.713C755.952 566.119 752.534 566.822 748.849 566.822C740.752 566.822 733.673 563.282 727.613 556.204C721.552 549.076 718.522 538.895 718.522 525.659C718.522 514.459 721.261 505.077 726.74 497.514C732.219 489.902 739.588 486.096 748.849 486.096C752.728 486.096 756.243 486.871 759.394 488.423C762.546 489.926 765.358 492.229 767.83 495.332V458.46ZM780.848 526.75C780.848 538.386 782.448 546.216 785.648 550.24C788.848 554.216 792.848 556.204 797.648 556.204C802.981 556.204 807.514 553.755 811.248 548.858C815.029 543.913 816.92 536.252 816.92 525.877C816.92 516.083 815.175 508.786 811.684 503.986C808.242 499.186 803.805 496.786 798.375 496.786C792.557 496.786 788.169 499.283 785.212 504.277C782.303 509.271 780.848 516.762 780.848 526.75ZM731.831 525.295C731.831 536.204 733.649 544.058 737.285 548.858C740.97 553.658 745.528 556.058 750.958 556.058C756.63 556.058 760.873 553.682 763.685 548.931C766.497 544.131 767.903 536.955 767.903 527.404C767.903 517.222 766.424 509.586 763.467 504.495C760.509 499.405 756.049 496.859 750.085 496.859C744.703 496.859 740.316 499.356 736.922 504.35C733.528 509.295 731.831 516.277 731.831 525.295ZM835.102 487.841H897.864V498.677H872.992V565.076H859.974V498.677H835.102V487.841ZM961.5 540.204L975.027 541.877C972.894 549.779 968.942 555.913 963.172 560.276C957.403 564.64 950.033 566.822 941.064 566.822C929.767 566.822 920.797 563.355 914.155 556.422C907.561 549.44 904.264 539.671 904.264 527.113C904.264 514.119 907.61 504.035 914.301 496.859C920.991 489.684 929.67 486.096 940.336 486.096C950.664 486.096 959.1 489.611 965.645 496.641C972.19 503.671 975.463 513.562 975.463 526.313C975.463 527.089 975.439 528.253 975.39 529.804H917.791C918.276 538.289 920.676 544.786 924.991 549.295C929.306 553.804 934.688 556.058 941.136 556.058C945.936 556.058 950.033 554.798 953.427 552.276C956.821 549.755 959.512 545.731 961.5 540.204ZM918.519 519.041H961.645C961.063 512.544 959.415 507.671 956.7 504.423C952.53 499.38 947.124 496.859 940.482 496.859C934.47 496.859 929.403 498.871 925.282 502.895C921.21 506.92 918.955 512.301 918.519 519.041ZM979.463 565.076L1007.68 524.931L981.572 487.841H997.935L1009.79 505.95C1012.02 509.392 1013.81 512.277 1015.17 514.604C1017.3 511.404 1019.27 508.568 1021.06 506.095L1034.08 487.841H1049.72L1023.03 524.204L1051.75 565.076H1035.68L1019.83 541.077L1015.61 534.604L995.317 565.076H979.463ZM1062.66 487.841H1075.75V546.749L1112.04 487.841H1126.15V565.076H1113.06V506.532L1076.77 565.076H1062.66V487.841ZM1146.22 487.841H1166.59L1186.88 549.658L1209.42 487.841H1228.26V565.076H1215.17V502.895L1192.33 565.076H1180.62L1159.02 499.914V565.076H1146.22V487.841ZM1243.39 526.459C1243.39 512.156 1247.36 501.562 1255.31 494.677C1261.96 488.956 1270.05 486.096 1279.6 486.096C1290.22 486.096 1298.9 489.587 1305.64 496.568C1312.38 503.501 1315.75 513.101 1315.75 525.368C1315.75 535.307 1314.25 543.137 1311.24 548.858C1308.28 554.531 1303.94 558.943 1298.22 562.094C1292.55 565.246 1286.34 566.822 1279.6 566.822C1268.79 566.822 1260.04 563.355 1253.35 556.422C1246.71 549.489 1243.39 539.501 1243.39 526.459ZM1256.84 526.459C1256.84 536.349 1259 543.767 1263.31 548.713C1267.63 553.61 1273.06 556.058 1279.6 556.058C1286.1 556.058 1291.51 553.585 1295.82 548.64C1300.14 543.695 1302.29 536.155 1302.29 526.022C1302.29 516.471 1300.11 509.247 1295.75 504.35C1291.43 499.405 1286.05 496.932 1279.6 496.932C1273.06 496.932 1267.63 499.38 1263.31 504.277C1259 509.174 1256.84 516.568 1256.84 526.459ZM1326.29 526.459C1326.29 512.156 1330.27 501.562 1338.22 494.677C1344.86 488.956 1352.96 486.096 1362.51 486.096C1373.13 486.096 1381.81 489.587 1388.55 496.568C1395.29 503.501 1398.66 513.101 1398.66 525.368C1398.66 535.307 1397.15 543.137 1394.15 548.858C1391.19 554.531 1386.85 558.943 1381.13 562.094C1375.46 565.246 1369.25 566.822 1362.51 566.822C1351.7 566.822 1342.95 563.355 1336.26 556.422C1329.61 549.489 1326.29 539.501 1326.29 526.459ZM1339.75 526.459C1339.75 536.349 1341.91 543.767 1346.22 548.713C1350.54 553.61 1355.97 556.058 1362.51 556.058C1369.01 556.058 1374.41 553.585 1378.73 548.64C1383.04 543.695 1385.2 536.155 1385.2 526.022C1385.2 516.471 1383.02 509.247 1378.66 504.35C1374.34 499.405 1368.96 496.932 1362.51 496.932C1355.97 496.932 1350.54 499.38 1346.22 504.277C1341.91 509.174 1339.75 516.568 1339.75 526.459ZM1414.07 594.676V487.841H1426V497.877C1428.81 493.95 1431.99 491.017 1435.53 489.077C1439.07 487.09 1443.36 486.096 1448.4 486.096C1454.99 486.096 1460.81 487.793 1465.85 491.187C1470.9 494.58 1474.7 499.38 1477.27 505.586C1479.84 511.744 1481.13 518.507 1481.13 525.877C1481.13 533.78 1479.7 540.907 1476.84 547.258C1474.02 553.561 1469.9 558.41 1464.47 561.803C1459.09 565.149 1453.42 566.822 1447.46 566.822C1443.09 566.822 1439.16 565.9 1435.67 564.058C1432.23 562.216 1429.39 559.888 1427.16 557.076V594.676H1414.07ZM1425.93 526.895C1425.93 536.834 1427.94 544.18 1431.96 548.931C1435.99 553.682 1440.86 556.058 1446.58 556.058C1452.4 556.058 1457.37 553.61 1461.49 548.713C1465.66 543.767 1467.75 536.131 1467.75 525.804C1467.75 515.962 1465.71 508.592 1461.64 503.695C1457.61 498.798 1452.79 496.35 1447.16 496.35C1441.59 496.35 1436.64 498.968 1432.33 504.204C1428.06 509.392 1425.93 516.956 1425.93 526.895ZM1494.65 594.821L1493.2 582.53C1496.06 583.306 1498.56 583.694 1500.69 583.694C1503.6 583.694 1505.93 583.209 1507.67 582.24C1509.42 581.27 1510.85 579.912 1511.96 578.167C1512.79 576.858 1514.12 573.609 1515.96 568.422C1516.21 567.694 1516.59 566.628 1517.13 565.222L1487.82 487.841H1501.93L1518 532.568C1520.08 538.24 1521.95 544.204 1523.6 550.458C1525.1 544.446 1526.9 538.58 1528.98 532.859L1545.49 487.841H1558.58L1529.2 566.385C1526.05 574.87 1523.6 580.712 1521.85 583.912C1519.53 588.227 1516.86 591.379 1513.85 593.367C1510.85 595.403 1507.26 596.421 1503.09 596.421C1500.57 596.421 1497.76 595.888 1494.65 594.821ZM1575.09 487.841H1628.91V554.313H1637.27V586.967H1626.51V565.076H1565.71V586.967H1554.94V554.313H1561.85C1571.07 541.804 1575.48 519.647 1575.09 487.841ZM1586 498.677C1585.03 523.744 1581.15 542.289 1574.36 554.313H1615.89V498.677H1586ZM1646.87 526.459C1646.87 512.156 1650.85 501.562 1658.8 494.677C1665.44 488.956 1673.54 486.096 1683.09 486.096C1693.71 486.096 1702.38 489.587 1709.12 496.568C1715.86 503.501 1719.23 513.101 1719.23 525.368C1719.23 535.307 1717.73 543.137 1714.72 548.858C1711.77 554.531 1707.43 558.943 1701.71 562.094C1696.03 565.246 1689.83 566.822 1683.09 566.822C1672.28 566.822 1663.52 563.355 1656.83 556.422C1650.19 549.489 1646.87 539.501 1646.87 526.459ZM1660.32 526.459C1660.32 536.349 1662.48 543.767 1666.8 548.713C1671.11 553.61 1676.54 556.058 1683.09 556.058C1689.58 556.058 1694.99 553.585 1699.31 548.64C1703.62 543.695 1705.78 536.155 1705.78 526.022C1705.78 516.471 1703.6 509.247 1699.23 504.35C1694.92 499.405 1689.54 496.932 1683.09 496.932C1676.54 496.932 1671.11 499.38 1666.8 504.277C1662.48 509.174 1660.32 516.568 1660.32 526.459ZM1734.72 487.841H1764.9C1772.32 487.841 1777.83 488.471 1781.41 489.732C1785.05 490.944 1788.15 493.199 1790.72 496.496C1793.34 499.792 1794.65 503.744 1794.65 508.35C1794.65 512.035 1793.87 515.259 1792.32 518.022C1790.82 520.738 1788.54 523.016 1785.49 524.859C1789.12 526.071 1792.13 528.35 1794.5 531.695C1796.93 534.992 1798.14 538.919 1798.14 543.477C1797.66 550.798 1795.04 556.228 1790.29 559.767C1785.53 563.307 1778.63 565.076 1769.56 565.076H1734.72V487.841ZM1747.81 520.35H1761.78C1767.35 520.35 1771.18 520.059 1773.27 519.477C1775.35 518.895 1777.22 517.732 1778.87 515.986C1780.52 514.192 1781.34 512.059 1781.34 509.586C1781.34 505.514 1779.89 502.677 1776.98 501.077C1774.12 499.477 1769.2 498.677 1762.21 498.677H1747.81V520.35ZM1747.81 554.313H1765.05C1772.47 554.313 1777.56 553.464 1780.32 551.767C1783.09 550.022 1784.54 547.04 1784.69 542.822C1784.69 540.349 1783.89 538.071 1782.29 535.986C1780.69 533.852 1778.6 532.519 1776.03 531.986C1773.46 531.404 1769.34 531.113 1763.67 531.113H1747.81V554.313ZM1862.43 555.549C1857.58 559.67 1852.9 562.579 1848.39 564.276C1843.93 565.973 1839.13 566.822 1833.99 566.822C1825.51 566.822 1818.99 564.761 1814.43 560.64C1809.87 556.47 1807.59 551.161 1807.59 544.713C1807.59 540.931 1808.44 537.489 1810.14 534.386C1811.89 531.234 1814.14 528.713 1816.9 526.822C1819.72 524.931 1822.87 523.501 1826.36 522.531C1828.93 521.853 1832.81 521.198 1837.99 520.568C1848.56 519.307 1856.35 517.804 1861.34 516.059C1861.39 514.265 1861.41 513.126 1861.41 512.641C1861.41 507.307 1860.18 503.55 1857.7 501.368C1854.36 498.411 1849.39 496.932 1842.79 496.932C1836.64 496.932 1832.08 498.023 1829.12 500.205C1826.21 502.338 1824.05 506.144 1822.65 511.623L1809.85 509.877C1811.01 504.398 1812.93 499.986 1815.59 496.641C1818.26 493.247 1822.12 490.653 1827.16 488.859C1832.2 487.017 1838.04 486.096 1844.68 486.096C1851.28 486.096 1856.64 486.871 1860.76 488.423C1864.88 489.974 1867.91 491.938 1869.85 494.314C1871.79 496.641 1873.15 499.598 1873.92 503.186C1874.36 505.417 1874.58 509.441 1874.58 515.259V532.713C1874.58 544.883 1874.84 552.592 1875.38 555.84C1875.96 559.04 1877.07 562.119 1878.72 565.076H1865.05C1863.69 562.361 1862.82 559.185 1862.43 555.549ZM1861.34 526.313C1856.59 528.253 1849.46 529.901 1839.96 531.259C1834.58 532.034 1830.77 532.907 1828.54 533.877C1826.31 534.846 1824.59 536.277 1823.38 538.168C1822.16 540.01 1821.56 542.07 1821.56 544.349C1821.56 547.84 1822.87 550.749 1825.49 553.076C1828.15 555.404 1832.03 556.567 1837.12 556.567C1842.16 556.567 1846.65 555.476 1850.58 553.295C1854.5 551.064 1857.39 548.034 1859.23 544.204C1860.64 541.246 1861.34 536.883 1861.34 531.113V526.313ZM1895.01 487.841H1908.1V519.986H1944.39V487.841H1957.48V565.076H1944.39V530.822H1908.1V565.076H1895.01V487.841ZM1977.26 487.841H1990.36V546.749L2026.65 487.841H2040.75V565.076H2027.66V506.532L1991.37 565.076H1977.26V487.841ZM2113.33 540.204L2126.86 541.877C2124.73 549.779 2120.78 555.913 2115.01 560.276C2109.24 564.64 2101.87 566.822 2092.9 566.822C2081.6 566.822 2072.63 563.355 2065.99 556.422C2059.4 549.44 2056.1 539.671 2056.1 527.113C2056.1 514.119 2059.44 504.035 2066.14 496.859C2072.83 489.684 2081.51 486.096 2092.17 486.096C2102.5 486.096 2110.93 489.611 2117.48 496.641C2124.03 503.671 2127.3 513.562 2127.3 526.313C2127.3 527.089 2127.27 528.253 2127.23 529.804H2069.63C2070.11 538.289 2072.51 544.786 2076.83 549.295C2081.14 553.804 2086.52 556.058 2092.97 556.058C2097.77 556.058 2101.87 554.798 2105.26 552.276C2108.66 549.755 2111.35 545.731 2113.33 540.204ZM2070.35 519.041H2113.48C2112.9 512.544 2111.25 507.671 2108.53 504.423C2104.37 499.38 2098.96 496.859 2092.32 496.859C2086.31 496.859 2081.24 498.871 2077.12 502.895C2073.04 506.92 2070.79 512.301 2070.35 519.041Z" fill="#30B6E0"/>
</svg>
