<svg width="52" height="53" viewBox="0 0 52 53" fill="none" xmlns="http://www.w3.org/2000/svg">
<path d="M43.4531 15.773H8.04688C7.15804 15.773 6.4375 16.4936 6.4375 17.3824C6.4375 18.2712 7.15804 18.9918 8.04688 18.9918H43.4531C44.342 18.9918 45.0625 18.2712 45.0625 17.3824C45.0625 16.4936 44.342 15.773 43.4531 15.773Z" fill="black"/>
<path d="M37.0156 24.8926H8.04688C7.15804 24.8926 6.4375 25.6132 6.4375 26.502C6.4375 27.3908 7.15804 28.1114 8.04688 28.1114H37.0156C37.9045 28.1114 38.625 27.3908 38.625 26.502C38.625 25.6132 37.9045 24.8926 37.0156 24.8926Z" fill="black"/>
<path d="M43.4531 34.0082H8.04688C7.15804 34.0082 6.4375 34.7288 6.4375 35.6176C6.4375 36.5064 7.15804 37.227 8.04688 37.227H43.4531C44.342 37.227 45.0625 36.5064 45.0625 35.6176C45.0625 34.7288 44.342 34.0082 43.4531 34.0082Z" fill="black"/>
</svg>
